<?xml version="1.0" encoding="utf-8"?>
<!-- Generator: Adobe Illustrator 17.0.0, SVG Export Plug-In . SVG Version: 6.00 Build 0)  -->
<!DOCTYPE svg PUBLIC "-//W3C//DTD SVG 1.1//EN" "http://www.w3.org/Graphics/SVG/1.1/DTD/svg11.dtd">
<svg version="1.1" id="Layer_1" xmlns="http://www.w3.org/2000/svg" xmlns:xlink="http://www.w3.org/1999/xlink" x="0px" y="0px"
	 width="59px" height="58.167px" viewBox="0 0 59 58.167" enable-background="new 0 0 59 58.167" xml:space="preserve">
<path fill="#A90533" d="M9.346,3.742V4.64c0.559,0.193,0.742,0.369,0.799,1.182v20.699c0,11.514,9.371,14.557,19.256,22.29
	c9.889-7.733,19.258-10.776,19.258-22.29V5.591c0.074-0.627,0.271-0.779,0.773-0.951V3.742H9.346z"/>
<path fill="#FFFFFF" d="M33.299,37.438c0,0,1.602-0.682,2.477-3.33c0.773,1.613,0.568,3.271,0.568,3.271
	C35.639,37.539,33.299,37.438,33.299,37.438z"/>
<path fill="#FFFFFF" d="M39.993,32.115c-4.68,0.646-5.482-9.158-5.482-9.158s1.572,5.018,4.91,4.841
	c3.457-0.179,2.477-5.504,2.477-5.504S45.258,31.391,39.993,32.115z"/>
<path fill="#FFFFFF" d="M18.489,29.878c-1.605,0.544-4.494,1.063-4.494,1.063s2.672-2.022,4.666-8.264l1.92,1.735l-0.358,1.193
	c0,0,0.916,1.307,1.145,2.195c0,0,1.262-2.428-0.125-5.032l-0.248,0.727l-0.752-0.682l-1.291-1.182c0,0,0.584-2.042,2.406-4.546
	l0.174,0.192L23.012,19l-0.449,0.748c0,0,1.02,1.067,1.883,2.388c0,0,0.457-2.183-0.178-4.547l-0.67,0.626l-1.646-1.907
	c2.336-2.328,4.604-3.741,7.303-4.648c-0.168,0.181-0.322,0.376-0.467,0.583c-0.92,1.295-1.848,3.634-1.098,7.407
	c0.115,0.59,0.313,1.423,0.516,2.305c0.404,1.724,0.853,3.677,1.012,4.907c0.32,2.563,0.063,4.242-0.793,5.13
	c-0.598,0.621-1.56,0.896-2.902,0.847c0.008-0.215,0.016-0.416,0.016-0.615c0-1.807-0.365-3.172-0.383-3.238l-0.332-1.242
	l-0.559,1.159c-0.877,1.83-3.867,6.378-7.766,7.269c0,0-0.006,0-0.006,0.003C18.448,33.171,18.489,29.878,18.489,29.878z"/>
<path fill="#FFFFFF" d="M45.647,13.647l-4.615,0.196c0.006,0.544-0.068,1.09-0.242,1.611c0.428,1.883,0.133,2.909,0.133,2.909
	c-0.774-1.798-1.363-2.299-1.363-2.299c-4.234-1.883-6.611,2.375-6.361,5.122c0.205,2.257,1.029,5.253,1.664,9.952
	c0.541,3.957-1.459,5.666-3.766,6.06c-0.051,0.008-0.1,0.018-0.152,0.022c-0.014,0.006-0.023,0.006-0.037,0.006
	c-0.371,0.049-0.771,0.065-1.188,0.057c-0.012,0-0.033,0-0.041-0.003c-0.047,0-0.094-0.002-0.141-0.005
	c-0.18-0.014-0.355-0.03-0.529-0.055c-1.793-0.246-5.807-0.975-9.947-1.074c2.432-1.423,4.342-3.887,5.402-5.635
	c0.063,0.48,0.113,1.076,0.113,1.725c0,0.322-0.01,0.662-0.041,1.011l-0.043,0.476l0.476,0.043c1.906,0.164,3.264-0.197,4.143-1.109
	c1.086-1.127,1.418-3.004,1.053-5.914c-0.158-1.277-0.621-3.259-1.029-5.005c-0.201-0.875-0.391-1.701-0.51-2.275
	c-0.682-3.44,0.133-5.525,0.941-6.674c0.635-0.896,1.506-1.551,2.461-1.873c0.02,0,0.033-0.002,0.057-0.007l1.566-4.834h0.496
	l-1.059,4.644c0.248-0.041,0.498-0.081,0.748-0.119l1.359-4.286h0.49l-0.887,4.153c1.402-0.181,2.93-0.322,4.625-0.45
	c0.275,0.114,0.57,0.433,0.832,0.877l4.438-1.371l0.162,0.477l-4.242,1.649c0.037,0.088,0.068,0.181,0.096,0.271l4.642-0.581
	l0.076,0.5l-4.502,0.898c0.016,0.086,0.029,0.171,0.043,0.255l4.686,0.149L45.647,13.647z"/>
<path fill="#A90533" d="M32.278,15.722c0.934-0.653,2.518-1.155,4.002-1.044c0.375,0.032,0.697-0.069,0.287-0.283
	c-1.109-0.586-3.697-0.386-4.617,0.238c-1.467,1.005-1.217,2.785-1.182,2.825C31.059,16.946,31.555,16.227,32.278,15.722z"/>
<path fill="#68737A" d="M36.618,45.619l-7.221,5.139l-7.221-5.139c-5.133-3.506-9.529-6.516-11.834-11.088
	c1.902,8.567,10.281,11.77,19.055,18.639c8.772-6.869,17.152-10.072,19.049-18.639C46.143,39.104,41.749,42.113,36.618,45.619z"/>
</svg>
